<svg width="64" height="65" viewBox="0 0 64 65" fill="none" xmlns="http://www.w3.org/2000/svg">
<path d="M53.636 10.644H10.076C9.02571 10.644 8.01847 11.0612 7.27582 11.8039C6.53318 12.5465 6.11597 13.5538 6.11597 14.604V50.244C6.11597 51.2943 6.53318 52.3015 7.27582 53.0442C8.01847 53.7868 9.02571 54.204 10.076 54.204H53.636C54.6862 54.204 55.6935 53.7868 56.4361 53.0442C57.1788 52.3015 57.596 51.2943 57.596 50.244V14.604C57.596 13.5538 57.1788 12.5465 56.4361 11.8039C55.6935 11.0612 54.6862 10.644 53.636 10.644ZM53.636 50.244H10.076V14.604H53.636V50.244ZM45.716 24.504C45.716 25.0291 45.5074 25.5328 45.136 25.9041C44.7647 26.2754 44.2611 26.484 43.736 26.484H19.976C19.4508 26.484 18.9472 26.2754 18.5759 25.9041C18.2046 25.5328 17.996 25.0291 17.996 24.504C17.996 23.9789 18.2046 23.4753 18.5759 23.1039C18.9472 22.7326 19.4508 22.524 19.976 22.524H43.736C44.2611 22.524 44.7647 22.7326 45.136 23.1039C45.5074 23.4753 45.716 23.9789 45.716 24.504ZM45.716 32.424C45.716 32.9491 45.5074 33.4528 45.136 33.8241C44.7647 34.1954 44.2611 34.404 43.736 34.404H19.976C19.4508 34.404 18.9472 34.1954 18.5759 33.8241C18.2046 33.4528 17.996 32.9491 17.996 32.424C17.996 31.8989 18.2046 31.3953 18.5759 31.0239C18.9472 30.6526 19.4508 30.444 19.976 30.444H43.736C44.2611 30.444 44.7647 30.6526 45.136 31.0239C45.5074 31.3953 45.716 31.8989 45.716 32.424ZM45.716 40.344C45.716 40.8691 45.5074 41.3728 45.136 41.7441C44.7647 42.1154 44.2611 42.324 43.736 42.324H19.976C19.4508 42.324 18.9472 42.1154 18.5759 41.7441C18.2046 41.3728 17.996 40.8691 17.996 40.344C17.996 39.8189 18.2046 39.3153 18.5759 38.9439C18.9472 38.5726 19.4508 38.364 19.976 38.364H43.736C44.2611 38.364 44.7647 38.5726 45.136 38.9439C45.5074 39.3153 45.716 39.8189 45.716 40.344Z" fill="#0681F2"/>
</svg>
