<svg width="304" height="288" viewBox="0 0 304 288" fill="none" xmlns="http://www.w3.org/2000/svg">
<path d="M190.709 9.81116L13.9921 204.621C23.6356 225.579 38.1897 243.904 56.4208 258.042L246.776 45.5838C231.157 29.4209 211.949 17.1656 190.709 9.81116Z" fill="#F2F2F2"/>
<path d="M144 287.5C64.874 287.5 0.5 223.126 0.5 144C0.5 64.8739 64.874 0.499878 144 0.499878C223.126 0.499878 287.5 64.8739 287.5 144C287.5 223.126 223.126 287.5 144 287.5ZM144 1.49988C65.4253 1.49988 1.5 65.4252 1.5 144C1.5 222.575 65.4253 286.5 144 286.5C222.575 286.5 286.5 222.575 286.5 144C286.5 65.4252 222.575 1.49988 144 1.49988Z" fill="black"/>
<path d="M43 144C43 170.787 53.641 196.477 72.5822 215.418C91.5234 234.359 117.213 245 144 245V43C117.213 43 91.5234 53.641 72.5822 72.5822C53.641 91.5234 43 117.213 43 144Z" fill="#575A89"/>
<path d="M144 43V245C170.787 245 196.477 234.359 215.418 215.418C234.359 196.477 245 170.787 245 144C245 117.213 234.359 91.5234 215.418 72.5822C196.477 53.641 170.787 43 144 43Z" fill="#6C63FF"/>
<path d="M144 163C151.732 163 158 156.732 158 149C158 141.268 151.732 135 144 135C136.268 135 130 141.268 130 149C130 156.732 136.268 163 144 163Z" fill="#2F2E41"/>
<path d="M143.976 97.658L147.464 125.329L150.952 153H143.976H137L140.488 125.329L143.976 97.658Z" fill="#2F2E41"/>
<path d="M227.475 149.786L181.963 151.488L136.452 153.189L136.477 149.214L136.502 145.238L181.988 147.512L227.475 149.786Z" fill="#2F2E41"/>
<path d="M292.5 156C290.185 156 289.25 154.409 288.066 152.395C287.771 151.892 287.45 151.347 287.079 150.77L287.921 150.229C288.3 150.818 288.627 151.375 288.929 151.889C290.107 153.895 290.757 155 292.5 155C298.29 155 303 145.355 303 133.5C303 121.645 298.29 112 292.5 112C289.157 112 286.833 114.062 284.964 118.687L284.036 118.312C286.08 113.255 288.69 111 292.5 111C298.841 111 304 121.093 304 133.5C304 145.907 298.841 156 292.5 156Z" fill="black"/>
</svg>
