<svg width="66" height="66" viewBox="0 0 66 66" fill="none" xmlns="http://www.w3.org/2000/svg">
<path d="M63.3968 33.0286C63.397 35.8457 62.5618 38.5996 60.9968 40.9419C59.4318 43.2843 57.2073 45.11 54.6047 46.1881C52.002 47.2662 49.1382 47.5482 46.3752 46.9986C43.6123 46.4489 41.0744 45.0923 39.0825 43.1002L38.9986 43.0112L23.7513 25.7928C22.3238 24.382 20.5109 23.425 18.5408 23.0421C16.5707 22.6592 14.5313 22.8677 12.6793 23.6412C10.8273 24.4146 9.24555 25.7186 8.13297 27.389C7.02039 29.0594 6.42675 31.0216 6.42675 33.0286C6.42675 35.0356 7.02039 36.9978 8.13297 38.6682C9.24555 40.3386 10.8273 41.6426 12.6793 42.4161C14.5313 43.1895 16.5707 43.398 18.5408 43.0151C20.5109 42.6322 22.3238 41.6752 23.7513 40.2644L25.9182 37.8177C26.0954 37.6173 26.3103 37.4538 26.5507 37.3364C26.7911 37.2191 27.0522 37.1502 27.3192 37.1338C27.5862 37.1174 27.8538 37.1538 28.1068 37.2408C28.3597 37.3278 28.5931 37.4638 28.7935 37.6409C28.9939 37.8181 29.1574 38.033 29.2747 38.2734C29.3921 38.5138 29.4609 38.775 29.4773 39.0419C29.4937 39.3089 29.4574 39.5765 29.3704 39.8295C29.2834 40.0824 29.1474 40.3158 28.9702 40.5162L26.7601 43.0112L26.6761 43.1002C24.6842 45.0919 22.1464 46.4483 19.3836 46.9977C16.6209 47.5471 13.7572 47.265 11.1548 46.187C8.55239 45.1089 6.32807 43.2834 4.76313 40.9412C3.1982 38.5991 2.36292 35.8455 2.36292 33.0286C2.36292 30.2117 3.1982 27.4581 4.76313 25.116C6.32807 22.7738 8.55239 20.9483 11.1548 19.8702C13.7572 18.7922 16.6209 18.5101 19.3836 19.0595C22.1464 19.6089 24.6842 20.9653 26.6761 22.957L26.7601 23.046L42.0073 40.2644C43.4348 41.6752 45.2477 42.6322 47.2178 43.0151C49.188 43.398 51.2274 43.1895 53.0793 42.4161C54.9313 41.6426 56.5131 40.3386 57.6257 38.6682C58.7382 36.9978 59.3319 35.0356 59.3319 33.0286C59.3319 31.0216 58.7382 29.0594 57.6257 27.389C56.5131 25.7186 54.9313 24.4146 53.0793 23.6412C51.2274 22.8677 49.188 22.6592 47.2178 23.0421C45.2477 23.425 43.4348 24.382 42.0073 25.7928L39.8404 28.2395C39.4826 28.6442 38.9786 28.8902 38.4394 28.9234C37.9002 28.9565 37.3699 28.7741 36.9652 28.4163C36.5605 28.0584 36.3145 27.5545 36.2813 27.0153C36.2482 26.4761 36.4306 25.9458 36.7884 25.541L38.9986 23.046L39.0825 22.957C41.0744 20.9649 43.6123 19.6083 46.3752 19.0586C49.1382 18.509 52.002 18.7911 54.6047 19.8691C57.2073 20.9472 59.4318 22.7729 60.9968 25.1153C62.5618 27.4577 63.397 30.2115 63.3968 33.0286Z" fill="#0681F2"/>
</svg>
