<svg width="28" height="28" viewBox="0 0 28 28" fill="none" xmlns="http://www.w3.org/2000/svg">
<path d="M8.13094 14.6191L16.8809 23.3691C16.9622 23.4504 17.0587 23.5149 17.165 23.5589C17.2712 23.6029 17.385 23.6255 17.5 23.6255C17.615 23.6255 17.7288 23.6029 17.835 23.5589C17.9413 23.5149 18.0378 23.4504 18.1191 23.3691C18.2004 23.2878 18.2648 23.1913 18.3088 23.085C18.3528 22.9788 18.3755 22.865 18.3755 22.75C18.3755 22.635 18.3528 22.5212 18.3088 22.415C18.2648 22.3088 18.2004 22.2122 18.1191 22.131L9.98703 14L18.1191 5.86908C18.2833 5.70489 18.3755 5.48221 18.3755 5.25001C18.3755 5.01782 18.2833 4.79514 18.1191 4.63095C17.9549 4.46677 17.7322 4.37453 17.5 4.37453C17.2678 4.37453 17.0451 4.46677 16.8809 4.63095L8.13094 13.381C8.04958 13.4622 7.98505 13.5587 7.94101 13.6649C7.89698 13.7712 7.87431 13.885 7.87431 14C7.87431 14.115 7.89698 14.2289 7.94101 14.3351C7.98505 14.4413 8.04958 14.5378 8.13094 14.6191Z" fill="white"/>
</svg>
