<svg width="16" height="17" viewBox="0 0 16 17" fill="none" xmlns="http://www.w3.org/2000/svg">
<path d="M12.4843 2.35236H9.99305C9.72876 2.35236 9.47529 2.45735 9.28841 2.64423C9.10152 2.83111 8.99653 3.08458 8.99653 3.34887V13.3141C8.99653 13.5783 9.10152 13.8318 9.28841 14.0187C9.47529 14.2056 9.72876 14.3106 9.99305 14.3106H12.4843C12.7486 14.3106 13.0021 14.2056 13.189 14.0187C13.3759 13.8318 13.4809 13.5783 13.4809 13.3141V3.34887C13.4809 3.08458 13.3759 2.83111 13.189 2.64423C13.0021 2.45735 12.7486 2.35236 12.4843 2.35236ZM12.4843 13.3141H9.99305V3.34887H12.4843V13.3141ZM6.00698 2.35236H3.51568C3.25139 2.35236 2.99792 2.45735 2.81104 2.64423C2.62415 2.83111 2.51917 3.08458 2.51917 3.34887V13.3141C2.51917 13.5783 2.62415 13.8318 2.81104 14.0187C2.99792 14.2056 3.25139 14.3106 3.51568 14.3106H6.00698C6.27127 14.3106 6.52474 14.2056 6.71162 14.0187C6.89851 13.8318 7.0035 13.5783 7.0035 13.3141V3.34887C7.0035 3.08458 6.89851 2.83111 6.71162 2.64423C6.52474 2.45735 6.27127 2.35236 6.00698 2.35236ZM6.00698 13.3141H3.51568V3.34887H6.00698V13.3141Z" fill="white" fill-opacity="0.5"/>
</svg>
