<svg width="64" height="64" viewBox="0 0 64 64" fill="none" xmlns="http://www.w3.org/2000/svg">
<path d="M55.928 31.76C55.928 32.2851 55.7194 32.7888 55.348 33.1601C54.9767 33.5314 54.4731 33.74 53.948 33.74H26.228C25.7028 33.74 25.1992 33.5314 24.8279 33.1601C24.4566 32.7888 24.248 32.2851 24.248 31.76C24.248 31.2349 24.4566 30.7313 24.8279 30.3599C25.1992 29.9886 25.7028 29.78 26.228 29.78H53.948C54.4731 29.78 54.9767 29.9886 55.348 30.3599C55.7194 30.7313 55.928 31.2349 55.928 31.76ZM26.228 17.9H53.948C54.4731 17.9 54.9767 17.6914 55.348 17.3201C55.7194 16.9488 55.928 16.4451 55.928 15.92C55.928 15.3949 55.7194 14.8913 55.348 14.5199C54.9767 14.1486 54.4731 13.94 53.948 13.94H26.228C25.7028 13.94 25.1992 14.1486 24.8279 14.5199C24.4566 14.8913 24.248 15.3949 24.248 15.92C24.248 16.4451 24.4566 16.9488 24.8279 17.3201C25.1992 17.6914 25.7028 17.9 26.228 17.9ZM53.948 45.62H26.228C25.7028 45.62 25.1992 45.8286 24.8279 46.1999C24.4566 46.5713 24.248 47.0749 24.248 47.6C24.248 48.1251 24.4566 48.6288 24.8279 49.0001C25.1992 49.3714 25.7028 49.58 26.228 49.58H53.948C54.4731 49.58 54.9767 49.3714 55.348 49.0001C55.7194 48.6288 55.928 48.1251 55.928 47.6C55.928 47.0749 55.7194 46.5713 55.348 46.1999C54.9767 45.8286 54.4731 45.62 53.948 45.62ZM11.274 13.7321L12.368 13.1827V25.82C12.368 26.3451 12.5766 26.8488 12.9479 27.2201C13.3192 27.5914 13.8228 27.8 14.348 27.8C14.8731 27.8 15.3767 27.5914 15.748 27.2201C16.1194 26.8488 16.328 26.3451 16.328 25.82V9.98001C16.3282 9.64234 16.2421 9.31021 16.0778 9.0152C15.9135 8.72019 15.6765 8.4721 15.3892 8.29451C15.102 8.11693 14.7742 8.01575 14.4368 8.00059C14.0995 7.98543 13.7639 8.0568 13.4619 8.20791L9.50192 10.1879C9.03193 10.4229 8.67454 10.835 8.50837 11.3335C8.42609 11.5803 8.39324 11.8409 8.41168 12.1005C8.43013 12.36 8.49951 12.6133 8.61587 12.8461C8.73222 13.0788 8.89328 13.2863 9.08984 13.4568C9.28639 13.6272 9.5146 13.7573 9.76144 13.8396C10.2599 14.0058 10.804 13.9671 11.274 13.7321ZM20.231 38.8682C20.1216 38.084 19.8546 37.3301 19.4463 36.6517C19.038 35.9733 18.4967 35.3845 17.855 34.9206C16.5698 33.9873 14.9734 33.5872 13.3999 33.804C11.8265 34.0209 10.3978 34.8378 9.41282 36.0838C9.03636 36.5672 8.7382 37.1067 8.52924 37.6827C8.42013 37.9306 8.36303 38.1982 8.36148 38.4691C8.35994 38.7399 8.41397 39.0082 8.52025 39.2573C8.62653 39.5064 8.78279 39.7311 8.97936 39.9174C9.17594 40.1037 9.40865 40.2478 9.66311 40.3405C9.91756 40.4333 10.1883 40.4729 10.4587 40.4569C10.7291 40.4409 10.9933 40.3695 11.235 40.2473C11.4767 40.1251 11.6907 39.9545 11.8639 39.7463C12.0371 39.538 12.1657 39.2965 12.2417 39.0365C12.311 38.8466 12.4096 38.6688 12.5338 38.5093C12.8831 38.0741 13.3867 37.7904 13.9399 37.7171C14.4931 37.6438 15.0532 37.7866 15.5038 38.1158C15.7205 38.2691 15.9038 38.4649 16.0425 38.6912C16.1812 38.9176 16.2725 39.1698 16.3106 39.4325C16.3456 39.6848 16.3292 39.9416 16.2624 40.1875C16.1956 40.4333 16.0799 40.6631 15.9221 40.8631C15.9149 40.8717 15.9082 40.8808 15.9023 40.8903L8.80149 50.3745C8.58145 50.6688 8.44767 51.0186 8.41513 51.3847C8.38258 51.7507 8.45255 52.1186 8.61721 52.4472C8.78187 52.7757 9.03472 53.0519 9.34745 53.2449C9.66019 53.438 10.0205 53.5401 10.388 53.54H18.308C18.8331 53.54 19.3367 53.3314 19.708 52.9601C20.0794 52.5888 20.288 52.0851 20.288 51.56C20.288 51.0349 20.0794 50.5313 19.708 50.1599C19.3367 49.7886 18.8331 49.58 18.308 49.58H14.348L19.0703 43.2613C19.549 42.6447 19.8986 41.9378 20.098 41.183C20.2975 40.4282 20.3427 39.6409 20.231 38.8682Z" fill="#0681F2"/>
</svg>
